<svg xmlns="http://www.w3.org/2000/svg" viewBox="0 0 614 126" width="614" height="126">
	<style>
		tspan { white-space:pre }
		.shp0 { fill: #ff2e17;stroke: #ff2e17;stroke-width: 0 } 
		.shp1 { fill: #ff2e17;stroke: #ff2e17;stroke-width: 1.3 } 
	</style>
	<g >
		<path fill-rule="evenodd" class="shp0" d="M371.84 59.27C375.24 55.84 379.75 54.13 385.35 54.13C390.93 54.13 395.52 56.16 399.1 60.21C402.69 64.29 404.48 69.45 404.48 75.7C404.48 82.19 402.61 87.44 398.88 91.43C395.16 95.42 390.38 97.42 384.57 97.42C380.24 97.42 376.57 95.98 373.55 93.09L373.55 111.6L362.8 114.86L362.8 54.22L371.84 59.27ZM383.82 88.52C386.84 88.52 389.26 87.34 391.07 84.98C392.87 82.62 393.77 79.55 393.77 75.79C393.77 71.91 392.89 68.83 391.13 66.51C389.37 64.22 386.93 63.06 383.82 63.06C380.62 63.06 378.11 64.2 376.29 66.47C374.47 68.75 373.55 71.85 373.55 75.79C373.55 79.52 374.47 82.57 376.3 84.95C378.14 87.34 380.65 88.52 383.82 88.52ZM66.96 55.54L71.04 55.54C80.24 55.54 87.08 57.19 91.51 60.47C95.97 63.75 98.2 68.77 98.2 75.52C98.2 89.53 88.91 96.54 70.34 96.54L54 96.54L54 28.88L93.37 28.88L86.84 39.69L66.96 39.69L66.96 55.54ZM66.96 85.54L70.34 85.54C75.82 85.54 79.65 84.72 81.81 83.09C83.96 81.45 85.04 79.01 85.04 75.71C85.04 72.63 83.91 70.32 81.65 68.77C79.39 67.22 75.63 66.44 70.34 66.44L66.96 66.44L66.96 85.54ZM181.56 96.54L168.48 96.54C163.04 87.11 160.02 81.92 159.39 80.99C158.76 80.04 157.96 79.58 157.03 79.58L156.45 79.58L156.45 96.54L145.75 96.54L145.75 54.95L156.45 54.95L156.45 70.38C158.12 70.38 159.48 69.84 160.53 68.77C161.57 67.7 163.25 65.34 165.57 61.7C167.48 58.7 169.19 56.65 170.72 55.53C172.26 54.41 173.91 53.86 175.7 53.86C177.26 53.86 178.72 54.11 180.1 54.61L180.1 63.51C179.34 63.45 178.48 63.42 177.5 63.42C176.42 63.42 175.53 63.72 174.84 64.33C174.15 64.95 173.23 66.11 172.09 67.78C169.75 71.32 167.48 73.61 165.31 74.6C167.31 75.55 169.25 77.49 171.16 80.47L181.56 96.54ZM214.77 74.08C217.33 74.6 219.36 75.74 220.86 77.5C222.38 79.28 223.13 81.37 223.13 83.8C223.13 92.3 216.77 96.54 204.02 96.54L187.5 96.54L187.5 54.95L203.75 54.95C209.33 54.95 213.6 55.86 216.55 57.68C219.51 59.48 220.98 62.08 220.98 65.49C220.98 69.75 218.91 72.6 214.77 74.08ZM198.07 71.08L203.14 71.08C205.99 71.08 207.89 70.72 208.82 70C209.77 69.28 210.23 68.2 210.23 66.77C210.23 65.39 209.75 64.35 208.77 63.66C207.81 62.97 206.11 62.62 203.66 62.62L198.07 62.62L198.07 71.08ZM198.07 88.87L204.11 88.87C207.25 88.87 209.39 88.43 210.52 87.55C211.65 86.67 212.22 85.34 212.22 83.55C212.22 81.73 211.6 80.38 210.37 79.52C209.13 78.65 206.8 78.21 203.41 78.21L198.07 78.21L198.07 88.87ZM271.41 93.19L262.87 97.42C261.37 95.92 260.4 94.16 259.95 92.13C256.81 95.65 252.92 97.42 248.24 97.42C242.36 97.42 237.6 95.44 233.9 91.5C230.21 87.55 228.38 82.29 228.38 75.7C228.38 69.22 230.25 63.99 233.99 60.05C237.73 56.1 242.63 54.13 248.68 54.13C253.67 54.13 257.68 55.96 260.7 59.63L269.42 54.61L269.42 84.16C269.42 88.09 270.08 91.11 271.41 93.19ZM248.68 88.61C251.73 88.61 254.18 87.43 256 85.07C257.82 82.7 258.72 79.58 258.72 75.7C258.72 71.78 257.83 68.68 256.06 66.44C254.28 64.18 251.82 63.06 248.68 63.06C245.77 63.06 243.48 64.22 241.76 66.51C240.06 68.83 239.2 71.88 239.2 75.7C239.2 79.61 240.05 82.74 241.72 85.08C243.4 87.44 245.71 88.61 248.68 88.61ZM312.56 54.95L307.97 63.9L298.32 63.9L298.32 96.54L287.59 96.54L287.59 63.9L276.38 63.9L276.38 54.95L312.56 54.95ZM334.79 54.13C340.81 54.13 345.83 56.13 349.86 60.11C353.87 64.11 355.89 69.33 355.89 75.79C355.89 82.25 353.87 87.47 349.83 91.45C345.8 95.42 340.78 97.42 334.79 97.42C328.73 97.42 323.7 95.41 319.64 91.41C315.58 87.4 313.56 82.19 313.56 75.79C313.56 69.36 315.58 64.14 319.59 60.14C323.62 56.13 328.69 54.13 334.79 54.13ZM334.79 88.52C337.94 88.52 340.43 87.37 342.28 85.04C344.13 82.72 345.05 79.64 345.05 75.79C345.05 71.94 344.13 68.86 342.28 66.54C340.43 64.23 337.94 63.06 334.79 63.06C331.62 63.06 329.1 64.23 327.22 66.54C325.34 68.86 324.39 71.94 324.39 75.79C324.39 79.64 325.34 82.72 327.22 85.04C329.1 87.37 331.62 88.52 334.79 88.52ZM446.53 96.54L436.32 96.54L436.32 74.51L415.21 97.73L411.51 97.73L411.51 54.95L421.74 54.95L421.74 77.25L442.83 54.04L446.53 54.04L446.53 96.54ZM488.11 96.54L477.45 96.54L477.45 81.38L474.94 81.38L465.22 96.54L452.04 96.54L464.28 79.76C461.56 78.93 459.44 77.52 457.93 75.54C456.41 73.54 455.65 71.16 455.65 68.39C455.65 64.17 457.25 60.86 460.42 58.5C463.59 56.14 468.15 54.95 474.12 54.95L488.11 54.95L488.11 96.54ZM477.45 73.64L477.45 62.98L474.33 62.98C471.73 62.98 469.82 63.39 468.63 64.23C467.44 65.07 466.84 66.39 466.84 68.21C466.84 71.82 469.22 73.64 473.94 73.64L477.45 73.64ZM140.16 54.95L117.88 111.69L105.58 115.48L114.61 93.02L100.56 54.95L111.92 54.95L119.86 80.38L129.59 54.95L140.16 54.95Z" />
		<path fill-rule="evenodd" class="shp1" d="M117.71 45.67L115.6 45.67L107.67 37.67L107.6 45.67L106.11 45.67L106.11 29.8L107.6 29.8L107.6 37.06L114.94 29.8L116.85 29.8L109.14 37.31L117.71 45.67ZM137.13 45.67L135.63 45.67L135.63 38.1L127.38 38.1L127.38 45.67L125.89 45.67L125.89 29.8L127.38 29.8L127.38 36.81L135.63 36.81L135.63 29.8L137.13 29.8L137.13 45.67ZM158.84 45.67L157.34 45.67L157.34 33.75L157.43 31.82L156.57 33.32L148.82 45.67L147.12 45.67L147.12 29.8L148.61 29.8L148.61 41.73L148.52 43.65L149.48 42.04L157.14 29.8L158.84 29.8L158.84 45.67ZM186.14 45.67L183.99 45.67L177.19 37.65L177.12 45.67L175.63 45.67L175.63 37.65L168.76 45.67L166.61 45.67L174.04 37.24L167.35 29.8L169.17 29.8L175.56 37.03L175.63 29.8L177.12 29.8L177.12 37.03L183.58 29.8L185.39 29.8L178.71 37.24L186.14 45.67ZM205.15 45.67L203.66 45.67L203.66 38.1L195.41 38.1L195.41 45.67L193.91 45.67L193.91 29.8L195.41 29.8L195.41 36.81L203.66 36.81L203.66 29.8L205.15 29.8L205.15 45.67ZM228.15 45.67L226.54 45.67L224.71 41.29L216.6 41.29L214.83 45.67L213.22 45.67L219.52 29.8L221.47 29.8L228.15 45.67ZM224.16 40L221.08 32.77L220.52 31.28L219.95 32.77L217.07 40L224.16 40ZM245.49 45.67L243.99 45.67L243.99 38.89L240.8 38.89L237.26 45.67L235.42 45.67L239.28 38.6C238.26 38.3 237.48 37.77 236.93 37.01C236.38 36.26 236.1 35.38 236.1 34.38C236.1 33.1 236.5 32.04 237.31 31.21C238.2 30.27 239.44 29.8 241.04 29.8L245.49 29.8L245.49 45.67ZM243.99 37.6L243.99 31.1L240.91 31.1C239.93 31.1 239.15 31.41 238.57 32.03C238 32.65 237.71 33.43 237.71 34.38C237.71 35.41 238.05 36.22 238.71 36.81C239.3 37.34 240.03 37.6 240.91 37.6L243.99 37.6ZM272.5 31.1L267.76 31.1L267.76 45.67L266.27 45.67L266.27 31.1L261.51 31.1L261.51 29.8L272.5 29.8L272.5 31.1ZM293.91 37.76C293.91 40.3 293.22 42.3 291.85 43.76C290.53 45.15 288.83 45.85 286.73 45.85C284.64 45.85 282.94 45.15 281.63 43.76C280.24 42.3 279.54 40.3 279.54 37.76C279.54 35.48 280.13 33.59 281.31 32.09C282.61 30.45 284.41 29.62 286.73 29.62C289.04 29.62 290.84 30.45 292.14 32.09C293.32 33.57 293.91 35.46 293.91 37.76ZM292.3 37.76C292.3 35.52 291.72 33.79 290.56 32.55C289.54 31.46 288.27 30.92 286.73 30.92C285.2 30.92 283.92 31.46 282.9 32.55C281.73 33.79 281.15 35.52 281.15 37.76C281.15 40 281.73 41.73 282.9 42.95C283.91 44.02 285.19 44.56 286.73 44.56C288.25 44.56 289.53 44.02 290.56 42.95C291.72 41.73 292.3 40 292.3 37.76ZM311.77 34.38C311.77 35.76 311.34 36.86 310.49 37.7C309.63 38.54 308.47 38.96 307.01 38.96L304.38 38.96L304.38 45.67L302.88 45.67L302.88 29.8L307.01 29.8C308.47 29.8 309.63 30.22 310.49 31.06C311.34 31.9 311.77 33.01 311.77 34.38ZM310.16 34.38C310.16 33.29 309.84 32.47 309.19 31.92C308.55 31.37 307.72 31.1 306.71 31.1L304.38 31.1L304.38 37.67L306.71 37.67C307.83 37.67 308.68 37.38 309.27 36.81C309.86 36.23 310.16 35.42 310.16 34.38ZM328.53 31.1L321.89 31.1L321.89 45.67L320.4 45.67L320.4 29.8L328.53 29.8L328.53 31.1ZM349.83 37.76C349.83 40.3 349.15 42.3 347.77 43.76C346.46 45.15 344.75 45.85 342.65 45.85C340.56 45.85 338.87 45.15 337.55 43.76C336.16 42.3 335.47 40.3 335.47 37.76C335.47 35.48 336.05 33.59 337.23 32.09C338.53 30.45 340.34 29.62 342.65 29.62C344.96 29.62 346.77 30.45 348.07 32.09C349.24 33.57 349.83 35.46 349.83 37.76ZM348.23 37.76C348.23 35.52 347.64 33.79 346.48 32.55C345.47 31.46 344.19 30.92 342.65 30.92C341.12 30.92 339.85 31.46 338.82 32.55C337.66 33.79 337.07 35.52 337.07 37.76C337.07 40 337.66 41.73 338.82 42.95C339.83 44.02 341.11 44.56 342.65 44.56C344.18 44.56 345.45 44.02 346.48 42.95C347.64 41.73 348.23 40 348.23 37.76ZM368.14 41.2C368.14 42.67 367.67 43.78 366.71 44.53C365.76 45.29 364.49 45.67 362.91 45.67L358.8 45.67L358.8 29.8L363.04 29.8C364.61 29.8 365.8 30.2 366.6 30.98C367.33 31.69 367.69 32.63 367.69 33.79C367.69 34.61 367.49 35.3 367.1 35.88C366.63 36.56 365.91 37.06 364.95 37.37C365.91 37.59 366.69 38.04 367.27 38.73C367.85 39.43 368.14 40.25 368.14 41.2ZM366.08 33.82C366.08 32.89 365.79 32.21 365.2 31.77C364.61 31.32 363.84 31.1 362.88 31.1L360.3 31.1L360.3 36.83L362.84 36.83C363.85 36.83 364.64 36.55 365.22 35.99C365.79 35.43 366.08 34.71 366.08 33.82ZM366.53 41.23C366.53 40.26 366.2 39.5 365.52 38.95C364.85 38.4 363.96 38.12 362.86 38.12L360.3 38.12L360.3 44.38L362.7 44.38C363.72 44.38 364.52 44.22 365.11 43.9C366.06 43.39 366.53 42.5 366.53 41.23ZM390.35 45.67L388.74 45.67L386.9 41.29L378.79 41.29L377.02 45.67L375.41 45.67L381.71 29.8L383.66 29.8L390.35 45.67ZM386.36 40L383.28 32.77L382.71 31.28L382.15 32.77L379.27 40L386.36 40ZM407.68 45.67L406.19 45.67L406.19 38.89L402.99 38.89L399.46 45.67L397.62 45.67L401.47 38.6C400.46 38.3 399.68 37.77 399.13 37.01C398.58 36.26 398.3 35.38 398.3 34.38C398.3 33.1 398.7 32.04 399.5 31.21C400.39 30.27 401.64 29.8 403.24 29.8L407.68 29.8L407.68 45.67ZM406.19 37.6L406.19 31.1L403.11 31.1C402.12 31.1 401.34 31.41 400.77 32.03C400.2 32.65 399.91 33.43 399.91 34.38C399.91 35.41 400.24 36.22 400.91 36.81C401.5 37.34 402.23 37.6 403.11 37.6L406.19 37.6ZM436.53 45.24C436.06 45.39 435.45 45.53 434.68 45.66C433.92 45.79 433.07 45.85 432.13 45.85C429.62 45.85 427.69 44.99 426.33 43.27C425.18 41.82 424.61 40.06 424.61 37.99C424.61 35.78 425.17 33.92 426.29 32.41C427.66 30.55 429.67 29.62 432.31 29.62C433.16 29.62 433.88 29.66 434.48 29.75C435.08 29.83 435.71 29.99 436.37 30.24L436.23 31.59C435.12 31.14 433.86 30.92 432.45 30.92C430.58 30.92 429.07 31.58 427.93 32.92C426.79 34.26 426.22 35.95 426.22 38.01C426.22 39.85 426.78 41.4 427.91 42.67C429.03 43.93 430.52 44.56 432.36 44.56C433.89 44.56 435.28 44.31 436.53 43.81L436.53 45.24ZM453.07 45.67L444.93 45.67L444.93 29.8L452.64 29.8L452.64 31.1L446.43 31.1L446.43 36.83L452.34 36.83L452.34 38.12L446.43 38.12L446.43 44.38L453.07 44.38L453.07 45.67ZM470.99 31.1L466.26 31.1L466.26 45.67L464.76 45.67L464.76 31.1L460 31.1L460 29.8L470.99 29.8L470.99 31.1ZM488.76 40.95C488.76 42.22 488.32 43.31 487.44 44.22C486.51 45.18 485.31 45.67 483.86 45.67L479.06 45.67L479.06 29.8L480.55 29.8L480.55 36.31L483.09 36.31C484.84 36.31 486.23 36.7 487.24 37.48C488.25 38.25 488.76 39.41 488.76 40.95ZM487.15 41C487.15 39.62 486.63 38.67 485.61 38.12C484.94 37.77 484.1 37.6 483.07 37.6L480.55 37.6L480.55 44.38L483.41 44.38C484.62 44.38 485.56 44.03 486.24 43.33C486.85 42.72 487.15 41.94 487.15 41Z" />
		<path fill-rule="evenodd" class="shp1" d="M575.23 93.34C575.52 92.86 575.79 92.38 576.08 91.9C581.77 82.48 590.71 75.57 600.28 70.36L593.71 67.48C584.78 74.43 578.3 82.12 574.03 93.91C573.2 94.36 572.63 94.16 572.46 93.21C577.14 79.56 585.31 70.92 596.92 62.95L580.67 54.37C580.41 53.56 580.14 52.77 579.84 51.98L599.33 62.26C599.75 62.48 599.76 63.11 599.35 63.37C597.95 64.34 596.59 65.3 595.28 66.28C597.94 67.43 600.6 68.55 603.26 69.77C603.77 70.01 603.85 70.4 603.34 70.66C602.79 70.94 602.25 71.25 601.7 71.54C595.1 75.18 588.8 79.37 583.61 84.87C581.59 87.02 579.75 89.35 578.15 91.83C577.65 92.61 577.2 93.4 576.73 94.19C575.84 94.59 575.34 94.31 575.23 93.34ZM531.25 93.16C532.72 93 534.85 92.74 536.11 92.65C546.19 91.93 555.5 93.18 565.26 95.82C565.75 96.54 565.52 97.07 564.81 97.48C553.55 94.44 542.4 93.4 530.84 94.93L530.83 94.95L511.99 81.7L510.08 80.32C509.97 79.75 509.98 78.45 511.12 78.46L518.94 77.88C516.87 76.15 514.8 74.42 512.73 72.68C512.27 72.29 512.65 71.14 513.32 71.2C526.82 71.55 538.61 71.85 550 76.05L549.99 77.69C538.91 74.01 528.33 72.95 515.85 73.05L521.4 77.7L521.5 77.69L521.5 77.78L532.65 87.12C537.62 87.01 542.61 87.08 547.54 87.73C554.24 88.6 560.73 90.57 566.68 93.77L567.63 94.29C567.91 95.05 567.63 95.56 566.81 95.8C564.33 94.46 561.83 93.27 559.19 92.29C554.67 90.64 549.95 89.66 545.17 89.19C540.89 88.77 536.58 88.75 532.28 88.85L531.86 88.71C528.19 85.63 524.51 82.55 520.84 79.47L512.78 80.15L531.25 93.16ZM511.52 90.3L532.71 102.04C538.31 101.09 543.93 100.23 549.61 99.9C555.39 99.56 561.16 99.83 566.9 100.66C567.06 100.06 567.21 99.53 567.51 98.98C569.38 95.56 574.07 95.53 576.68 98.12C585.46 90.02 596.25 83.92 607.42 79.87L608 81.49L607.04 81.84C595.84 85.96 585.23 92.34 576.56 100.6C575.35 99.1 574.1 97.92 572.02 98C569.2 98.12 568.59 100.36 568.38 102.63C563.55 101.89 558.74 101.43 553.84 101.48C546.77 101.55 539.8 102.59 532.83 103.77C532.51 103.82 532.28 103.77 531.99 103.61C524.73 99.58 517.47 95.56 510.21 91.53C509.8 91.32 509.75 91.15 509.77 90.71C509.84 89.71 510.01 89.59 511.52 90.3ZM553.14 79.87C553.14 80.53 553.13 81.2 552.21 81.18C551.29 81.17 551.29 80.5 551.3 79.84L551.86 20.2C551.87 19.53 551.87 18.87 552.8 18.89C553.72 18.9 553.71 19.56 553.71 20.23L553.67 23.7C565.98 29.62 583.23 49.36 581.29 70.55C571.91 69.89 562.54 72.33 553.16 77.88L553.14 79.87ZM553.16 77.59C561.21 59.59 561.59 41.97 553.66 24.8L553.16 77.59ZM547.52 72.39C543.26 69.84 538.25 68.76 532.5 69.16C539.45 61.71 543.7 53.13 545.46 43.57C548.56 49.07 551.56 62.73 547.52 72.39Z" />
	</g>
</svg>